<svg width="512" height="512" xmlns="http://www.w3.org/2000/svg">
  <defs></defs>
  <path style="fill:#2e2e2e; stroke:none;" d="M250 64L251 65L250 64z"></path>
  <path style="fill:#5e5e5e; stroke:none;" d="M251 64L252 65L251 64z"></path>
  <path style="fill:#a2a2a2; stroke:none;" d="M252 64L253 65L252 64z"></path>
  <path style="fill:#ffffff; stroke:none;" d="M233 88C220.514 88.9937 207.203 93.2511 196 98.7562C186.185 103.579 176.866 109.344 169 117.015C115.094 169.583 140.185 245.777 121.573 311C112.617 342.384 90.4161 363.845 65 383L65 384L447 384L447 383C421.732 363.957 399.333 342.208 390.427 311C372.044 246.579 398.578 162.705 340 113.921C333.001 108.092 325.327 102.642 317 98.8642C305.29 93.5515 292.777 89.65 280 88C279.348 57.3777 233.086 56.9038 233 88z"></path>
  <path style="fill:#a2a2a2; stroke:none;" d="M259 64L260 65L259 64z"></path>
  <path style="fill:#5e5e5e; stroke:none;" d="M260 64L261 65L260 64z"></path>
  <path style="fill:#2e2e2e; stroke:none;" d="M261 64L262 65L261 64z"></path>
  <path style="fill:#5e5e5e; stroke:none;" d="M247 65L248 66L247 65M264 65L265 66L264 65z"></path>
  <path style="fill:#2e2e2e; stroke:none;" d="M244 66L245 67L244 66z"></path>
  <path style="fill:#a2a2a2; stroke:none;" d="M245 66L246 67L245 66M266 66L267 67L266 66z"></path>
  <path style="fill:#2e2e2e; stroke:none;" d="M267 66L268 67L267 66z"></path>
  <path style="fill:#a2a2a2; stroke:none;" d="M243 67L244 68L243 67M268 67L269 68L268 67z"></path>
  <path style="fill:#5e5e5e; stroke:none;" d="M241 68L242 69L241 68M270 68L271 69L270 68z"></path>
  <path style="fill:#a2a2a2; stroke:none;" d="M240 69L241 70L240 69M271 69L272 70L271 69M237 72L238 73L237 72M236 73L237 74L236 73z"></path>
  <path style="fill:#2e2e2e; stroke:none;" d="M235 74L236 75L235 74z"></path>
  <path style="fill:#5e5e5e; stroke:none;" d="M276 74L277 75L276 74M234 76L235 77L234 76z"></path>
  <path style="fill:#a2a2a2; stroke:none;" d="M277 76L278 77L277 76z"></path>
  <path style="fill:#2e2e2e; stroke:none;" d="M278 77L279 78L278 77M233 78L234 79L233 78z"></path>
  <path style="fill:#a2a2a2; stroke:none;" d="M278 78L279 79L278 78M233 79L234 80L233 79z"></path>
  <path style="fill:#2e2e2e; stroke:none;" d="M279 80L280 81L279 80M232 81L233 82L232 81z"></path>
  <path style="fill:#a2a2a2; stroke:none;" d="M279 81L280 82L279 81z"></path>
  <path style="fill:#5e5e5e; stroke:none;" d="M232 82L233 83L232 82z"></path>
  <path style="fill:#a2a2a2; stroke:none;" d="M232 83L232 88L233 88L232 83z"></path>
  <path style="fill:#2e2e2e; stroke:none;" d="M280 87L281 88L280 87M226 88L227 89L226 88z"></path>
  <path style="fill:#5e5e5e; stroke:none;" d="M227 88L228 89L227 88z"></path>
  <path style="fill:#a2a2a2; stroke:none;" d="M228 88L229 89L228 88M283 88L284 89L283 88z"></path>
  <path style="fill:#5e5e5e; stroke:none;" d="M284 88L285 89L284 88z"></path>
  <path style="fill:#2e2e2e; stroke:none;" d="M285 88L286 89L285 88z"></path>
  <path style="fill:#5e5e5e; stroke:none;" d="M222 89L223 90L222 89z"></path>
  <path style="fill:#a2a2a2; stroke:none;" d="M223 89L224 90L223 89M288 89L289 90L288 89z"></path>
  <path style="fill:#5e5e5e; stroke:none;" d="M289 89L290 90L289 89z"></path>
  <path style="fill:#2e2e2e; stroke:none;" d="M290 89L291 90L290 89z"></path>
  <path style="fill:#5e5e5e; stroke:none;" d="M218 90L219 91L218 90z"></path>
  <path style="fill:#a2a2a2; stroke:none;" d="M219 90L220 91L219 90M293 90L294 91L293 90z"></path>
  <path style="fill:#2e2e2e; stroke:none;" d="M294 90L295 91L294 90M214 91L215 92L214 91z"></path>
  <path style="fill:#a2a2a2; stroke:none;" d="M215 91L216 92L215 91M296 91L297 92L296 91z"></path>
  <path style="fill:#5e5e5e; stroke:none;" d="M297 91L298 92L297 91z"></path>
  <path style="fill:#2e2e2e; stroke:none;" d="M211 92L212 93L211 92z"></path>
  <path style="fill:#a2a2a2; stroke:none;" d="M212 92L213 93L212 92M300 92L301 93L300 92z"></path>
  <path style="fill:#2e2e2e; stroke:none;" d="M301 92L302 93L301 92z"></path>
  <path style="fill:#5e5e5e; stroke:none;" d="M208 93L209 94L208 93z"></path>
  <path style="fill:#a2a2a2; stroke:none;" d="M303 93L304 94L303 93z"></path>
  <path style="fill:#2e2e2e; stroke:none;" d="M304 93L305 94L304 93M205 94L206 95L205 94z"></path>
  <path style="fill:#a2a2a2; stroke:none;" d="M206 94L207 95L206 94z"></path>
  <path style="fill:#5e5e5e; stroke:none;" d="M306 94L307 95L306 94z"></path>
  <path style="fill:#a2a2a2; stroke:none;" d="M203 95L204 96L203 95z"></path>
  <path style="fill:#5e5e5e; stroke:none;" d="M309 95L310 96L309 95M200 96L201 97L200 96z"></path>
  <path style="fill:#a2a2a2; stroke:none;" d="M311 96L312 97L311 96z"></path>
  <path style="fill:#5e5e5e; stroke:none;" d="M198 97L199 98L198 97z"></path>
  <path style="fill:#a2a2a2; stroke:none;" d="M313 97L314 98L313 97z"></path>
  <path style="fill:#2e2e2e; stroke:none;" d="M314 97L315 98L314 97z"></path>
  <path style="fill:#a2a2a2; stroke:none;" d="M196 98L197 99L196 98z"></path>
  <path style="fill:#2e2e2e; stroke:none;" d="M316 98L317 99L316 98z"></path>
  <path style="fill:#a2a2a2; stroke:none;" d="M194 99L195 100L194 99z"></path>
  <path style="fill:#2e2e2e; stroke:none;" d="M318 99L319 100L318 99z"></path>
  <path style="fill:#a2a2a2; stroke:none;" d="M192 100L193 101L192 100z"></path>
  <path style="fill:#2e2e2e; stroke:none;" d="M320 100L321 101L320 100z"></path>
  <path style="fill:#5e5e5e; stroke:none;" d="M190 101L191 102L190 101z"></path>
  <path style="fill:#2e2e2e; stroke:none;" d="M322 101L323 102L322 101z"></path>
  <path style="fill:#5e5e5e; stroke:none;" d="M188 102L189 103L188 102z"></path>
  <path style="fill:#a2a2a2; stroke:none;" d="M323 102L324 103L323 102z"></path>
  <path style="fill:#2e2e2e; stroke:none;" d="M186 103L187 104L186 103z"></path>
  <path style="fill:#5e5e5e; stroke:none;" d="M325 103L326 104L325 103z"></path>
  <path style="fill:#a2a2a2; stroke:none;" d="M185 104L186 105L185 104z"></path>
  <path style="fill:#2e2e2e; stroke:none;" d="M327 104L328 105L327 104M183 105L184 106L183 105z"></path>
  <path style="fill:#a2a2a2; stroke:none;" d="M328 105L329 106L328 105M182 106L183 107L182 106z"></path>
  <path style="fill:#2e2e2e; stroke:none;" d="M330 106L331 107L330 106M180 107L181 108L180 107z"></path>
  <path style="fill:#a2a2a2; stroke:none;" d="M331 107L332 108L331 107M179 108L180 109L179 108z"></path>
  <path style="fill:#2e2e2e; stroke:none;" d="M333 108L334 109L333 108M177 109L178 110L177 109z"></path>
  <path style="fill:#5e5e5e; stroke:none;" d="M334 109L335 110L334 109M176 110L177 111L176 110z"></path>
  <path style="fill:#a2a2a2; stroke:none;" d="M335 110L336 111L335 110M175 111L176 112L175 111z"></path>
  <path style="fill:#2e2e2e; stroke:none;" d="M338 112L339 113L338 112z"></path>
  <path style="fill:#5e5e5e; stroke:none;" d="M339 113L340 114L339 113z"></path>
  <path style="fill:#2e2e2e; stroke:none;" d="M171 114L172 115L171 114z"></path>
  <path style="fill:#a2a2a2; stroke:none;" d="M340 114L341 115L340 114z"></path>
  <path style="fill:#5e5e5e; stroke:none;" d="M170 115L171 116L170 115z"></path>
  <path style="fill:#a2a2a2; stroke:none;" d="M341 115L342 116L341 115z"></path>
  <path style="fill:#5e5e5e; stroke:none;" d="M169 116L170 117L169 116z"></path>
  <path style="fill:#a2a2a2; stroke:none;" d="M168 117L169 118L168 117M167 118L168 119L167 118M166 119L167 120L166 119M165 120L166 121L165 120z"></path>
  <path style="fill:#5e5e5e; stroke:none;" d="M164 121L165 122L164 121M163 122L164 123L163 122z"></path>
  <path style="fill:#a2a2a2; stroke:none;" d="M348 122L349 123L348 122z"></path>
  <path style="fill:#5e5e5e; stroke:none;" d="M162 123L163 124L162 123z"></path>
  <path style="fill:#a2a2a2; stroke:none;" d="M349 123L350 124L349 123z"></path>
  <path style="fill:#2e2e2e; stroke:none;" d="M161 124L162 125L161 124z"></path>
  <path style="fill:#a2a2a2; stroke:none;" d="M350 124L351 125L350 124z"></path>
  <path style="fill:#5e5e5e; stroke:none;" d="M351 125L352 126L351 125z"></path>
  <path style="fill:#2e2e2e; stroke:none;" d="M352 126L353 127L352 126z"></path>
  <path style="fill:#a2a2a2; stroke:none;" d="M158 128L159 129L158 128z"></path>
  <path style="fill:#2e2e2e; stroke:none;" d="M157 129L158 130L157 129z"></path>
  <path style="fill:#a2a2a2; stroke:none;" d="M354 129L355 130L354 129z"></path>
  <path style="fill:#2e2e2e; stroke:none;" d="M355 130L356 131L355 130z"></path>
  <path style="fill:#a2a2a2; stroke:none;" d="M155 132L156 133L155 132z"></path>
  <path style="fill:#2e2e2e; stroke:none;" d="M154 133L155 134L154 133z"></path>
  <path style="fill:#5e5e5e; stroke:none;" d="M357 133L358 134L357 133z"></path>
  <path style="fill:#2e2e2e; stroke:none;" d="M358 134L359 135L358 134z"></path>
  <path style="fill:#a2a2a2; stroke:none;" d="M153 135L154 136L153 135z"></path>
  <path style="fill:#2e2e2e; stroke:none;" d="M152 136L153 137L152 136z"></path>
  <path style="fill:#5e5e5e; stroke:none;" d="M359 136L360 137L359 136z"></path>
  <path style="fill:#a2a2a2; stroke:none;" d="M151 138L152 139L151 138M360 138L361 139L360 138z"></path>
  <path style="fill:#2e2e2e; stroke:none;" d="M361 139L362 140L361 139z"></path>
  <path style="fill:#5e5e5e; stroke:none;" d="M149 141L150 142L149 141z"></path>
  <path style="fill:#a2a2a2; stroke:none;" d="M362 141L363 142L362 141z"></path>
  <path style="fill:#5e5e5e; stroke:none;" d="M148 143L149 144L148 143z"></path>
  <path style="fill:#a2a2a2; stroke:none;" d="M363 143L364 144L363 143M147 145L148 146L147 145M364 145L365 146L364 145z"></path>
  <path style="fill:#2e2e2e; stroke:none;" d="M365 146L366 147L365 146z"></path>
  <path style="fill:#a2a2a2; stroke:none;" d="M146 147L147 148L146 147z"></path>
  <path style="fill:#2e2e2e; stroke:none;" d="M366 148L367 149L366 148z"></path>
  <path style="fill:#a2a2a2; stroke:none;" d="M145 149L146 150L145 149M366 149L367 150L366 149z"></path>
  <path style="fill:#5e5e5e; stroke:none;" d="M144 151L145 152L144 151z"></path>
  <path style="fill:#a2a2a2; stroke:none;" d="M367 151L368 152L367 151z"></path>
  <path style="fill:#5e5e5e; stroke:none;" d="M143 153L144 154L143 153z"></path>
  <path style="fill:#a2a2a2; stroke:none;" d="M368 153L369 154L368 153z"></path>
  <path style="fill:#2e2e2e; stroke:none;" d="M142 155L143 156L142 155M369 155L370 156L369 155z"></path>
  <path style="fill:#a2a2a2; stroke:none;" d="M142 156L143 157L142 156z"></path>
  <path style="fill:#2e2e2e; stroke:none;" d="M370 157L371 158L370 157z"></path>
  <path style="fill:#5e5e5e; stroke:none;" d="M141 158L142 159L141 158z"></path>
  <path style="fill:#a2a2a2; stroke:none;" d="M370 158L371 159L370 158z"></path>
  <path style="fill:#2e2e2e; stroke:none;" d="M140 160L141 161L140 160M371 160L372 161L371 160z"></path>
  <path style="fill:#a2a2a2; stroke:none;" d="M140 161L141 162L140 161M371 161L372 162L371 161z"></path>
  <path style="fill:#2e2e2e; stroke:none;" d="M139 163L140 164L139 163z"></path>
  <path style="fill:#5e5e5e; stroke:none;" d="M372 163L373 164L372 163z"></path>
  <path style="fill:#a2a2a2; stroke:none;" d="M139 164L140 165L139 164M372 164L373 165L372 164z"></path>
  <path style="fill:#2e2e2e; stroke:none;" d="M138 166L139 167L138 166M373 166L374 167L373 166z"></path>
  <path style="fill:#a2a2a2; stroke:none;" d="M138 167L139 168L138 167M373 167L374 168L373 167z"></path>
  <path style="fill:#2e2e2e; stroke:none;" d="M137 169L138 170L137 169M374 169L375 170L374 169z"></path>
  <path style="fill:#5e5e5e; stroke:none;" d="M137 170L138 171L137 170z"></path>
  <path style="fill:#a2a2a2; stroke:none;" d="M374 170L375 171L374 170z"></path>
  <path style="fill:#2e2e2e; stroke:none;" d="M136 173L137 174L136 173z"></path>
  <path style="fill:#5e5e5e; stroke:none;" d="M375 173L376 174L375 173z"></path>
  <path style="fill:#a2a2a2; stroke:none;" d="M136 174L137 175L136 174M375 174L376 175L375 174z"></path>
  <path style="fill:#2e2e2e; stroke:none;" d="M135 177L136 178L135 177z"></path>
  <path style="fill:#5e5e5e; stroke:none;" d="M376 177L377 178L376 177z"></path>
  <path style="fill:#a2a2a2; stroke:none;" d="M135 178L136 179L135 178M376 178L377 179L376 178z"></path>
  <path style="fill:#2e2e2e; stroke:none;" d="M134 181L135 182L134 181M377 181L378 182L377 181z"></path>
  <path style="fill:#5e5e5e; stroke:none;" d="M134 182L135 183L134 182M377 182L378 183L377 182z"></path>
  <path style="fill:#a2a2a2; stroke:none;" d="M134 183L135 184L134 183M377 183L378 184L377 183z"></path>
  <path style="fill:#2e2e2e; stroke:none;" d="M133 186L134 187L133 186M378 186L379 187L378 186z"></path>
  <path style="fill:#5e5e5e; stroke:none;" d="M133 187L134 188L133 187M378 187L379 188L378 187z"></path>
  <path style="fill:#a2a2a2; stroke:none;" d="M133 188L134 189L133 188M378 188L379 189L378 188z"></path>
  <path style="fill:#2e2e2e; stroke:none;" d="M132 192L133 193L132 192M379 192L380 193L379 192z"></path>
  <path style="fill:#5e5e5e; stroke:none;" d="M132.333 193.667L132.667 194.333L132.333 193.667M379 193L380 194L379 193z"></path>
  <path style="fill:#a2a2a2; stroke:none;" d="M379.333 194.667L379.667 195.333L379.333 194.667M132 195L133 196L132 195z"></path>
  <path style="fill:#2e2e2e; stroke:none;" d="M380.333 199.667L380.667 200.333L380.333 199.667M131 200L132 201L131 200z"></path>
  <path style="fill:#5e5e5e; stroke:none;" d="M131.333 201.667L131.667 202.333L131.333 201.667M380.333 201.667L380.667 202.333L380.333 201.667z"></path>
  <path style="fill:#a2a2a2; stroke:none;" d="M131.333 203.667L131.667 204.333L131.333 203.667M380.333 203.667L380.667 204.333L380.333 203.667z"></path>
  <path style="fill:#2e2e2e; stroke:none;" d="M130 212L130 215L131 215L130 212M381 212L381 215L382 215L381 212z"></path>
  <path style="fill:#5e5e5e; stroke:none;" d="M130 215L130 221L131 221L130 215M381 215L381 221L382 221L381 215z"></path>
  <path style="fill:#a2a2a2; stroke:none;" d="M130 221L130 238L131 238L130 221M381 221L381 238L382 238L381 221z"></path>
  <path style="fill:#2e2e2e; stroke:none;" d="M129 252L129 256L130 256L129 252M382 252L382 256L383 256L382 252z"></path>
  <path style="fill:#5e5e5e; stroke:none;" d="M129.333 256.667L129.667 257.333L129.333 256.667M382.333 256.667L382.667 257.333L382.333 256.667z"></path>
  <path style="fill:#a2a2a2; stroke:none;" d="M129 258L129 262L130 262L129 258M382 258L382 261L383 261L382 258z"></path>
  <path style="fill:#2e2e2e; stroke:none;" d="M128.333 267.667L128.667 268.333L128.333 267.667M383.333 267.667L383.667 268.333L383.333 267.667z"></path>
  <path style="fill:#5e5e5e; stroke:none;" d="M128.333 269.667L128.667 270.333L128.333 269.667M383.333 269.667L383.667 270.333L383.333 269.667z"></path>
  <path style="fill:#a2a2a2; stroke:none;" d="M128.333 271.667L128.667 272.333L128.333 271.667M383.333 271.667L383.667 272.333L383.333 271.667z"></path>
  <path style="fill:#2e2e2e; stroke:none;" d="M127.333 277.667L127.667 278.333L127.333 277.667M384.333 277.667L384.667 278.333L384.333 277.667z"></path>
  <path style="fill:#5e5e5e; stroke:none;" d="M127 279L128 280L127 279M384 279L385 280L384 279z"></path>
  <path style="fill:#a2a2a2; stroke:none;" d="M127.333 280.667L127.667 281.333L127.333 280.667M384.333 280.667L384.667 281.333L384.333 280.667z"></path>
  <path style="fill:#2e2e2e; stroke:none;" d="M126.333 285.667L126.667 286.333L126.333 285.667M385 285L386 286L385 285z"></path>
  <path style="fill:#5e5e5e; stroke:none;" d="M385 286L386 287L385 286M126 287L127 288L126 287z"></path>
  <path style="fill:#a2a2a2; stroke:none;" d="M385.333 287.667L385.667 288.333L385.333 287.667M126 288L127 289L126 288z"></path>
  <path style="fill:#2e2e2e; stroke:none;" d="M386 291L387 292L386 291M125 292L126 293L125 292z"></path>
  <path style="fill:#5e5e5e; stroke:none;" d="M386 292L387 293L386 292M125 293L126 294L125 293z"></path>
  <path style="fill:#a2a2a2; stroke:none;" d="M386.333 293.667L386.667 294.333L386.333 293.667M125 294L126 295L125 294z"></path>
  <path style="fill:#2e2e2e; stroke:none;" d="M124 297L125 298L124 297M387 297L388 298L387 297z"></path>
  <path style="fill:#5e5e5e; stroke:none;" d="M124 298L125 299L124 298z"></path>
  <path style="fill:#a2a2a2; stroke:none;" d="M387.333 298.667L387.667 299.333L387.333 298.667M124 299L125 300L124 299z"></path>
  <path style="fill:#2e2e2e; stroke:none;" d="M123 302L124 303L123 302z"></path>
  <path style="fill:#5e5e5e; stroke:none;" d="M388 302L389 303L388 302z"></path>
  <path style="fill:#a2a2a2; stroke:none;" d="M123 303L124 304L123 303M388 303L389 304L388 303z"></path>
  <path style="fill:#2e2e2e; stroke:none;" d="M122 306L123 307L122 306M389 306L390 307L389 306z"></path>
  <path style="fill:#a2a2a2; stroke:none;" d="M122 307L123 308L122 307M389 307L390 308L389 307z"></path>
  <path style="fill:#2e2e2e; stroke:none;" d="M390 309L391 310L390 309z"></path>
  <path style="fill:#5e5e5e; stroke:none;" d="M121 310L122 311L121 310M390 310L391 311L390 310z"></path>
  <path style="fill:#a2a2a2; stroke:none;" d="M121 311L122 312L121 311M390 311L391 312L390 311z"></path>
  <path style="fill:#2e2e2e; stroke:none;" d="M120 313L121 314L120 313M391 313L392 314L391 313z"></path>
  <path style="fill:#a2a2a2; stroke:none;" d="M120 314L121 315L120 314M391 314L392 315L391 314z"></path>
  <path style="fill:#2e2e2e; stroke:none;" d="M119 316L120 317L119 316M392 316L393 317L392 316z"></path>
  <path style="fill:#a2a2a2; stroke:none;" d="M119 317L120 318L119 317M392 317L393 318L392 317z"></path>
  <path style="fill:#2e2e2e; stroke:none;" d="M118 319L119 320L118 319M393 319L394 320L393 319z"></path>
  <path style="fill:#a2a2a2; stroke:none;" d="M118 320L119 321L118 320M393 320L394 321L393 320z"></path>
  <path style="fill:#2e2e2e; stroke:none;" d="M117 322L118 323L117 322z"></path>
  <path style="fill:#5e5e5e; stroke:none;" d="M394 322L395 323L394 322z"></path>
  <path style="fill:#2e2e2e; stroke:none;" d="M395 324L396 325L395 324z"></path>
  <path style="fill:#a2a2a2; stroke:none;" d="M116 325L117 326L116 325M395 325L396 326L395 325z"></path>
  <path style="fill:#5e5e5e; stroke:none;" d="M115 327L116 328L115 327z"></path>
  <path style="fill:#a2a2a2; stroke:none;" d="M396 327L397 328L396 327z"></path>
  <path style="fill:#2e2e2e; stroke:none;" d="M114 329L115 330L114 329z"></path>
  <path style="fill:#5e5e5e; stroke:none;" d="M397 329L398 330L397 329z"></path>
  <path style="fill:#2e2e2e; stroke:none;" d="M113 331L114 332L113 331z"></path>
  <path style="fill:#5e5e5e; stroke:none;" d="M398 331L399 332L398 331z"></path>
  <path style="fill:#2e2e2e; stroke:none;" d="M112 333L113 334L112 333z"></path>
  <path style="fill:#5e5e5e; stroke:none;" d="M399 333L400 334L399 333M111 335L112 336L111 335M400 335L401 336L400 335z"></path>
  <path style="fill:#a2a2a2; stroke:none;" d="M110 337L111 338L110 337M401 337L402 338L401 337z"></path>
  <path style="fill:#2e2e2e; stroke:none;" d="M402 338L403 339L402 338z"></path>
  <path style="fill:#a2a2a2; stroke:none;" d="M109 339L110 340L109 339z"></path>
  <path style="fill:#2e2e2e; stroke:none;" d="M108 340L109 341L108 340z"></path>
  <path style="fill:#5e5e5e; stroke:none;" d="M403 340L404 341L403 340z"></path>
  <path style="fill:#a2a2a2; stroke:none;" d="M107 342L108 343L107 342z"></path>
  <path style="fill:#2e2e2e; stroke:none;" d="M106 343L107 344L106 343z"></path>
  <path style="fill:#5e5e5e; stroke:none;" d="M405 343L406 344L405 343z"></path>
  <path style="fill:#2e2e2e; stroke:none;" d="M406 344L407 345L406 344z"></path>
  <path style="fill:#a2a2a2; stroke:none;" d="M105 345L106 346L105 345z"></path>
  <path style="fill:#5e5e5e; stroke:none;" d="M104 346L105 347L104 346z"></path>
  <path style="fill:#a2a2a2; stroke:none;" d="M407 346L408 347L407 346z"></path>
  <path style="fill:#2e2e2e; stroke:none;" d="M103 347L104 348L103 347z"></path>
  <path style="fill:#5e5e5e; stroke:none;" d="M408 347L409 348L408 347z"></path>
  <path style="fill:#2e2e2e; stroke:none;" d="M409 348L410 349L409 348z"></path>
  <path style="fill:#a2a2a2; stroke:none;" d="M101 350L102 351L101 350z"></path>
  <path style="fill:#5e5e5e; stroke:none;" d="M100 351L101 352L100 351z"></path>
  <path style="fill:#a2a2a2; stroke:none;" d="M411 351L412 352L411 351z"></path>
  <path style="fill:#2e2e2e; stroke:none;" d="M99 352L100 353L99 352z"></path>
  <path style="fill:#a2a2a2; stroke:none;" d="M412 352L413 353L412 352z"></path>
  <path style="fill:#2e2e2e; stroke:none;" d="M98 353L99 354L98 353z"></path>
  <path style="fill:#5e5e5e; stroke:none;" d="M413 353L414 354L413 353z"></path>
  <path style="fill:#2e2e2e; stroke:none;" d="M414 354L415 355L414 354M415 355L416 356L415 355M416 356L417 357L416 356M417 357L418 358L417 357M418 358L419 359L418 358M419 359L420 360L419 359M420 360L421 361L420 360M421 361L422 362L421 361M89 362L90 363L89 362z"></path>
  <path style="fill:#5e5e5e; stroke:none;" d="M422 362L423 363L422 362z"></path>
  <path style="fill:#2e2e2e; stroke:none;" d="M88 363L89 364L88 363z"></path>
  <path style="fill:#5e5e5e; stroke:none;" d="M423 363L424 364L423 363M87 364L88 365L87 364z"></path>
  <path style="fill:#a2a2a2; stroke:none;" d="M424 364L425 365L424 364z"></path>
  <path style="fill:#5e5e5e; stroke:none;" d="M86 365L87 366L86 365z"></path>
  <path style="fill:#a2a2a2; stroke:none;" d="M425 365L426 366L425 365M85 366L86 367L85 366M426 366L427 367L426 366M84 367L85 368L84 367z"></path>
  <path style="fill:#2e2e2e; stroke:none;" d="M429 368L430 369L429 368M81 369L82 370L81 369z"></path>
  <path style="fill:#5e5e5e; stroke:none;" d="M430 369L431 370L430 369M80 370L81 371L80 370M431 370L432 371L431 370z"></path>
  <path style="fill:#a2a2a2; stroke:none;" d="M79 371L80 372L79 371M432 371L433 372L432 371M78 372L79 373L78 372z"></path>
  <path style="fill:#2e2e2e; stroke:none;" d="M75 374L76 375L75 374z"></path>
  <path style="fill:#5e5e5e; stroke:none;" d="M436 374L437 375L436 374M74 375L75 376L74 375M437 375L438 376L437 375z"></path>
  <path style="fill:#a2a2a2; stroke:none;" d="M73 376L74 377L73 376M438 376L439 377L438 376z"></path>
  <path style="fill:#2e2e2e; stroke:none;" d="M441 378L442 379L441 378M69 379L70 380L69 379z"></path>
  <path style="fill:#5e5e5e; stroke:none;" d="M442 379L443 380L442 379M68 380L69 381L68 380z"></path>
  <path style="fill:#a2a2a2; stroke:none;" d="M443 380L444 381L443 380M67 381L68 382L67 381M444 381L445 382L444 381z"></path>
  <path style="fill:#2e2e2e; stroke:none;" d="M64 383L65 384L64 383M447 383L448 384L447 383M204 405L205 406L204 405z"></path>
  <path style="fill:#ffffff; stroke:none;" d="M205 405C209.533 460.428 304.546 461.288 307 405L205 405z"></path>
  <path style="fill:#a2a2a2; stroke:none;" d="M307.333 405.667L307.667 406.333L307.333 405.667z"></path>
  <path style="fill:#2e2e2e; stroke:none;" d="M307 407L308 408L307 407z"></path>
  <path style="fill:#a2a2a2; stroke:none;" d="M205 409L206 410L205 409z"></path>
  <path style="fill:#2e2e2e; stroke:none;" d="M205 410L206 411L205 410z"></path>
  <path style="fill:#a2a2a2; stroke:none;" d="M306 410L307 411L306 410z"></path>
  <path style="fill:#5e5e5e; stroke:none;" d="M306 411L307 412L306 411M206 413L207 414L206 413M305 414L306 415L305 414z"></path>
  <path style="fill:#a2a2a2; stroke:none;" d="M207 415L208 416L207 415z"></path>
  <path style="fill:#2e2e2e; stroke:none;" d="M207 416L208 417L207 416z"></path>
  <path style="fill:#a2a2a2; stroke:none;" d="M304 416L305 417L304 416z"></path>
  <path style="fill:#2e2e2e; stroke:none;" d="M304 417L305 418L304 417z"></path>
  <path style="fill:#5e5e5e; stroke:none;" d="M208 418L209 419L208 418z"></path>
  <path style="fill:#2e2e2e; stroke:none;" d="M303 419L304 420L303 419z"></path>
  <path style="fill:#5e5e5e; stroke:none;" d="M209 420L210 421L209 420z"></path>
  <path style="fill:#2e2e2e; stroke:none;" d="M302 421L303 422L302 421M210 422L211 423L210 422z"></path>
  <path style="fill:#a2a2a2; stroke:none;" d="M301 422L302 423L301 422M211 423L212 424L211 423z"></path>
  <path style="fill:#5e5e5e; stroke:none;" d="M300 424L301 425L300 424z"></path>
  <path style="fill:#2e2e2e; stroke:none;" d="M212 425L213 426L212 425z"></path>
  <path style="fill:#a2a2a2; stroke:none;" d="M299 425L300 426L299 425M213 426L214 427L213 426z"></path>
  <path style="fill:#2e2e2e; stroke:none;" d="M298 427L299 428L298 427z"></path>
  <path style="fill:#5e5e5e; stroke:none;" d="M297 428L298 429L297 428z"></path>
  <path style="fill:#2e2e2e; stroke:none;" d="M215 429L216 430L215 429z"></path>
  <path style="fill:#a2a2a2; stroke:none;" d="M296 429L297 430L296 429z"></path>
  <path style="fill:#2e2e2e; stroke:none;" d="M216 430L217 431L216 430z"></path>
  <path style="fill:#a2a2a2; stroke:none;" d="M295 430L296 431L295 430z"></path>
  <path style="fill:#5e5e5e; stroke:none;" d="M217 431L218 432L217 431z"></path>
  <path style="fill:#a2a2a2; stroke:none;" d="M294 431L295 432L294 431z"></path>
  <path style="fill:#5e5e5e; stroke:none;" d="M218 432L219 433L218 432z"></path>
  <path style="fill:#a2a2a2; stroke:none;" d="M293 432L294 433L293 432z"></path>
  <path style="fill:#2e2e2e; stroke:none;" d="M219 433L220 434L219 433z"></path>
  <path style="fill:#a2a2a2; stroke:none;" d="M292 433L293 434L292 433z"></path>
  <path style="fill:#2e2e2e; stroke:none;" d="M220 434L221 435L220 434z"></path>
  <path style="fill:#a2a2a2; stroke:none;" d="M291 434L292 435L291 434z"></path>
  <path style="fill:#2e2e2e; stroke:none;" d="M221 435L222 436L221 435z"></path>
  <path style="fill:#5e5e5e; stroke:none;" d="M290 435L291 436L290 435z"></path>
  <path style="fill:#a2a2a2; stroke:none;" d="M223 436L224 437L223 436z"></path>
  <path style="fill:#2e2e2e; stroke:none;" d="M289 436L290 437L289 436z"></path>
  <path style="fill:#a2a2a2; stroke:none;" d="M224 437L225 438L224 437z"></path>
  <path style="fill:#2e2e2e; stroke:none;" d="M225 438L226 439L225 438z"></path>
  <path style="fill:#5e5e5e; stroke:none;" d="M286 438L287 439L286 438M227 439L228 440L227 439z"></path>
  <path style="fill:#2e2e2e; stroke:none;" d="M228 440L229 441L228 440z"></path>
  <path style="fill:#5e5e5e; stroke:none;" d="M283 440L284 441L283 440z"></path>
  <path style="fill:#2e2e2e; stroke:none;" d="M230 441L231 442L230 441z"></path>
  <path style="fill:#5e5e5e; stroke:none;" d="M281 441L282 442L281 441M232 442L233 443L232 442z"></path>
  <path style="fill:#a2a2a2; stroke:none;" d="M279 442L280 443L279 442z"></path>
  <path style="fill:#2e2e2e; stroke:none;" d="M234 443L235 444L234 443z"></path>
  <path style="fill:#a2a2a2; stroke:none;" d="M235 443L236 444L235 443z"></path>
  <path style="fill:#5e5e5e; stroke:none;" d="M277 443L278 444L277 443z"></path>
  <path style="fill:#a2a2a2; stroke:none;" d="M237 444L238 445L237 444M274 444L275 445L274 444z"></path>
  <path style="fill:#2e2e2e; stroke:none;" d="M275 444L276 445L275 444z"></path>
  <path style="fill:#5e5e5e; stroke:none;" d="M240 445L241 446L240 445z"></path>
  <path style="fill:#a2a2a2; stroke:none;" d="M271 445L272 446L271 445z"></path>
  <path style="fill:#2e2e2e; stroke:none;" d="M272 445L273 446L272 445M243 446L244 447L243 446z"></path>
  <path style="fill:#a2a2a2; stroke:none;" d="M244 446L245 447L244 446M267 446L268 447L267 446z"></path>
  <path style="fill:#5e5e5e; stroke:none;" d="M268 446L269 447L268 446z"></path>
  <path style="fill:#2e2e2e; stroke:none;" d="M269 446L270 447L269 446M248 447L249 448L248 447z"></path>
  <path style="fill:#5e5e5e; stroke:none;" d="M249 447L250 448L249 447z"></path>
  <path style="fill:#a2a2a2; stroke:none;" d="M250 447L250 448L253 448L250 447M260.667 447.333L261.333 447.667L260.667 447.333z"></path>
  <path style="fill:#5e5e5e; stroke:none;" d="M262 447L263 448L262 447z"></path>
  <path style="fill:#2e2e2e; stroke:none;" d="M263.667 447.333L264.333 447.667L263.667 447.333z"></path>
</svg>