<svg version="1.0" width="512.000000pt" height="512.000000pt" viewBox="0 0 512.000000 512.000000" preserveAspectRatio="xMidYMid meet" xmlns="http://www.w3.org/2000/svg">
  <defs></defs>
  <g transform="translate(0.000000,512.000000) scale(0.100000,-0.100000)" fill="#000000" stroke="none">
    <path d="M1614 5096 c-84 -39 -144 -135 -144 -232 0 -59 37 -139 84 -182 83
-76 -3 -72 1420 -72 l1271 0 -2106 -2107 c-2337 -2338 -2145 -2135 -2137
-2271 7 -135 95 -223 230 -230 136 -8 -68 -200 2276 2142 l2112 2111 0 -1298
c0 -1432 -4 -1335 63 -1405 122 -128 340 -96 416 62 21 42 21 47 21 1682 0
1566 -1 1641 -19 1679 -23 52 -74 103 -126 126 -38 18 -113 19 -1675 19
l-1635 0 -51 -24z" style="fill: rgb(255, 255, 255);"></path>
  </g>
</svg>