<svg version="1.0" width="512.000000pt" height="512.000000pt" viewBox="55.789 -11.954 404.406 523.954" preserveAspectRatio="xMidYMid meet" xmlns="http://www.w3.org/2000/svg">
  <defs></defs>
  <g transform="translate(0.000000,512.000000) scale(0.100000,-0.100000)" fill="#000000" stroke="none">
    <path d="M3140 4689 c-690 -235 -1270 -433 -1288 -440 -66 -22 -62 77 -62
-1480 0 -1340 -1 -1411 -17 -1404 -101 38 -173 49 -328 49 -186 0 -268 -16
-412 -84 -215 -100 -365 -268 -418 -466 -21 -76 -21 -231 -1 -309 64 -244 281
-443 572 -527 69 -20 102 -23 254 -23 151 0 186 3 258 23 247 67 441 219 533
415 62 135 59 53 59 1517 l0 1335 863 293 c474 161 865 292 870 292 8 0 10
-1590 2 -1590 -3 0 -37 9 -77 20 -341 93 -716 0 -935 -232 -122 -130 -183
-278 -183 -443 0 -185 70 -337 218 -477 114 -107 245 -174 417 -214 108 -25
321 -25 424 -1 318 76 542 272 618 538 17 61 18 152 18 1826 l0 1761 -24 26
c-19 20 -34 26 -65 25 -26 -1 -513 -162 -1296 -430z" style="fill: rgb(255, 255, 255);"></path>
  </g>
</svg>